<?xml version="1.0" encoding="utf-8"?>
<!-- Generator: Adobe Illustrator 24.2.3, SVG Export Plug-In . SVG Version: 6.00 Build 0)  -->
<svg version="1.1"
	 id="svg83" inkscape:version="0.92.3 (2405546, 2018-03-11)" sodipodi:docname="I-00_template.svg" xmlns:cc="http://creativecommons.org/ns#" xmlns:dc="http://purl.org/dc/elements/1.1/" xmlns:inkscape="http://www.inkscape.org/namespaces/inkscape" xmlns:rdf="http://www.w3.org/1999/02/22-rdf-syntax-ns#" xmlns:sodipodi="http://sodipodi.sourceforge.net/DTD/sodipodi-0.dtd" xmlns:svg="http://www.w3.org/2000/svg"
	 xmlns="http://www.w3.org/2000/svg" xmlns:xlink="http://www.w3.org/1999/xlink" x="0px" y="0px" viewBox="0 0 600 600"
	 style="enable-background:new 0 0 600 600;" xml:space="preserve">
<style type="text/css">
	.st0{fill:#FFFFFF;stroke:#000000;}
	.st1{fill:#FFFFFF;stroke:#000000;stroke-linecap:round;stroke-linejoin:round;}
	.st2{fill:#003F87;}
	.st3{fill:#AF1E2D;}
	.st4{fill:#FFFFFF;}
</style>
<sodipodi:namedview  bordercolor="#666666" borderopacity="1" gridtolerance="10" guidetolerance="10" id="namedview85" inkscape:current-layer="g81" inkscape:cx="300" inkscape:cy="300" inkscape:pageopacity="0" inkscape:pageshadow="2" inkscape:window-height="998" inkscape:window-maximized="1" inkscape:window-width="1920" inkscape:window-x="-11" inkscape:window-y="-11" inkscape:zoom="1.3266667" objecttolerance="10" pagecolor="#ffffff" showgrid="false">
	</sodipodi:namedview>
<path id="path69" class="st0" d="M81.1,0.5c34.6,10.6,71.4,16.3,109.4,16.3c38,0,74.8-5.7,109.4-16.2
	c34.6,10.6,71.4,16.3,109.4,16.2s74.8-5.7,109.4-16.3c50.5,63.8,80.7,144.8,80.6,232.1c0,180.7-128.8,332.5-299.5,366.9
	C129.3,564.9,0.5,413.8,0.5,232.6C0.5,145,30.6,63.9,81.1,0.5L81.1,0.5z"/>
<path id="path71" class="st1" d="M81.1,0.5c34.6,10.6,71.4,16.3,109.4,16.3c38,0,74.8-5.7,109.4-16.2
	c34.6,10.6,71.4,16.3,109.4,16.2s74.8-5.7,109.4-16.3c50.5,63.8,80.7,144.8,80.6,232.1c0,180.7-128.8,332.5-299.5,366.9
	C129.3,564.9,0.5,413.8,0.5,232.6C0.5,145,30.6,63.9,81.1,0.5L81.1,0.5z"/>
<path id="path73" class="st2" d="M13,231.2c0-32.3,4.2-63.6,12.1-93.5h549.9c7.9,29.8,12.1,61.1,12.1,93.5
	C587,406,464.2,552.5,300,587C135.8,552.2,13,406.2,13,231.2L13,231.2z"/>
<path id="path75" class="st3" d="M28,125.3C40.4,85,59.3,47.6,83.7,14.6C117.2,24,152.6,29,189,29c38.6,0,75.7-5.6,111-16
	c35.2,10.5,72.5,16,111,16c36.5,0,71.8-5,105.3-14.4c24.3,33.1,43.3,70.4,55.8,110.7H28L28,125.3z"/>
<g id="g81">
	<path id="path77" inkscape:connector-curvature="0" class="st4" d="M108.9,112.8V50.4h8.7v62.4H108.9z M159.6,112.8L140.3,71v41.8
		h-8.9V50.4h8.9l17.1,37.4V50.4h8.9v62.4H159.6L159.6,112.8z M195.4,58.7v54.1h-9V58.7h-11.3v-8.3h31.7v8.3H195.4L195.4,58.7z
		 M215.3,112.8V50.4h29.3v8.8h-20.4v15.7h12.9v8.6h-12.9v20.6H247v8.8L215.3,112.8z M283.2,112.8l-8.3-29.3h-8.6v29.3h-8.9V50.4H276
		c2.4,0,4.6,0.4,6.6,1.2s3.8,1.9,5.2,3.4c1.5,1.4,2.6,3.2,3.3,5.3c0.8,2.1,1.2,4.4,1.2,6.8c0,3.7-0.7,6.9-2.2,9.5
		c-1.5,2.6-3.7,4.5-6.7,5.6l8.9,30.6H283.2L283.2,112.8z M283.7,67.1c0-2.4-0.7-4.3-2.2-5.8c-1.5-1.4-3.4-2.1-5.9-2.1h-9.2v15.7h9.2
		c2.6,0,4.6-0.7,6-2C283,71.6,283.7,69.6,283.7,67.1L283.7,67.1z M334.6,95.8c0,2.6-0.4,4.9-1.3,7.1c-0.9,2.2-2.1,4.1-3.7,5.7
		c-1.6,1.6-3.4,2.9-5.5,3.9c-2.1,1-4.3,1.4-6.7,1.4c-2.7,0-5.2-0.5-7.3-1.6c-2.2-1.1-4-2.5-5.5-4.3c-1.5-1.8-2.6-3.9-3.4-6.2
		s-1.2-4.8-1.2-7.4h8.7c0,1.3,0.2,2.6,0.5,3.9c0.3,1.3,0.9,2.4,1.6,3.4c0.7,1,1.6,1.8,2.7,2.5c1.1,0.6,2.4,0.9,4,0.9
		c1.2,0,2.3-0.2,3.4-0.7c1.1-0.5,2-1.2,2.8-2c0.8-0.9,1.4-1.9,1.9-3c0.5-1.2,0.7-2.3,0.7-3.6c0-1.8-0.4-3.4-1.1-4.8
		c-0.7-1.4-2-2.8-3.9-4.2c-0.3-0.3-0.4-0.5-0.4-0.5c0.1,0-0.1-0.2-0.6-0.5c-0.4-0.3-1.4-0.9-2.7-1.8c-1.4-0.9-3.7-2.4-6.8-4.6
		c-2.5-1.7-4.5-3.8-5.7-6.1c-1.3-2.3-1.9-4.9-1.9-7.7c0-2.2,0.4-4.3,1.2-6.3c0.8-2,1.9-3.7,3.4-5.2c1.5-1.5,3.1-2.7,5.1-3.5
		c1.9-0.8,4-1.3,6.2-1.3c2.2,0,4.3,0.4,6.2,1.2c1.9,0.8,3.5,1.9,4.9,3.4c1.4,1.4,2.5,3.1,3.3,5.1c0.8,2,1.3,4.2,1.3,6.5H326
		c-0.1-2.2-0.9-3.9-2.2-5.2c-1.4-1.3-3-2-5-2c-2,0-3.8,0.7-5.2,2c-1.4,1.4-2.1,3.1-2.1,5.1c0,1.6,0.4,2.9,1.2,3.9
		c0.8,1.1,2.4,2.2,4.6,3.5c6,3.5,10.4,7,13.2,10.6C333.2,87.2,334.6,91.2,334.6,95.8L334.6,95.8z M360.5,58.7v54.1h-9V58.7h-11.3
		v-8.3h31.7v8.3L360.5,58.7L360.5,58.7z M406.4,112.8l-4.4-17h-13.4l-4.1,17h-9l15.5-62.4h8.7l15.5,62.4H406.4z M395.3,69l-4.4,18
		h8.9L395.3,69z M439.5,58.7v54.1h-9V58.7h-11.3v-8.3h31.7v8.3L439.5,58.7L439.5,58.7z M459.4,112.8V50.4h29.3v8.8h-20.4v15.7h12.9
		v8.6h-12.9v20.6h22.8v8.8L459.4,112.8z"/>
</g>
</svg>
